<svg xmlns="http://www.w3.org/2000/svg" width="36.571" height="32" viewBox="0 0 36.571 32">
  <path id="bars-solid" d="M1.306,65.878H35.265a1.306,1.306,0,0,0,1.306-1.306V61.306A1.306,1.306,0,0,0,35.265,60H1.306A1.306,1.306,0,0,0,0,61.306v3.265A1.306,1.306,0,0,0,1.306,65.878Zm0,13.061H35.265a1.306,1.306,0,0,0,1.306-1.306V74.367a1.306,1.306,0,0,0-1.306-1.306H1.306A1.306,1.306,0,0,0,0,74.367v3.265A1.306,1.306,0,0,0,1.306,78.939ZM1.306,92H35.265a1.306,1.306,0,0,0,1.306-1.306V87.429a1.306,1.306,0,0,0-1.306-1.306H1.306A1.306,1.306,0,0,0,0,87.429v3.265A1.306,1.306,0,0,0,1.306,92Z" transform="translate(0 -60)" fill="#fff"/>
</svg>
