<svg xmlns="http://www.w3.org/2000/svg" width="32" height="32" viewBox="0 0 32 32"><path d="M16,32A16,16,0,0,1,4.686,4.686,16,16,0,1,1,27.314,27.314,15.9,15.9,0,0,1,16,32Zm.478-21.993a53.181,53.181,0,0,0-7.015.38,2.256,2.256,0,0,0-1.588,1.6,10.792,10.792,0,0,0-.258,1.682c-.116,1.2-.117,2.654-.117,2.668a23.8,23.8,0,0,0,.375,4.351,2.21,2.21,0,0,0,1.588,1.574,53.941,53.941,0,0,0,7.015.374,53.173,53.173,0,0,0,7.015-.38,2.207,2.207,0,0,0,1.588-1.573,23.736,23.736,0,0,0,.375-4.346,23.808,23.808,0,0,0-.375-4.351,2.256,2.256,0,0,0-1.588-1.6A53.174,53.174,0,0,0,16.478,10.007ZM14.643,19V13.663l4.7,2.668L14.644,19Z" fill="#eb7b41"/></svg>