<svg xmlns="http://www.w3.org/2000/svg" width="32" height="32" viewBox="0 0 32 32"><path d="M16,32A16,16,0,0,1,4.686,4.686,16,16,0,1,1,27.314,27.314,15.9,15.9,0,0,1,16,32Zm.272-24.621c-1.509,0-2.849.023-3.5.059A5.012,5.012,0,0,0,9.228,8.8a5,5,0,0,0-1.37,3.55c-.079,1.4-.079,5.586,0,6.991a4.989,4.989,0,0,0,1.37,3.55,5.022,5.022,0,0,0,3.549,1.369c.647.037,1.986.059,3.5.059s2.849-.023,3.5-.059a5,5,0,0,0,3.549-1.369,5.01,5.01,0,0,0,1.369-3.55c.08-1.407.08-5.585,0-6.985a4.993,4.993,0,0,0-1.369-3.551,5.009,5.009,0,0,0-3.549-1.37C19.121,7.4,17.781,7.379,16.272,7.379Zm1.494,15.428c-.317,0-.622,0-.891-.006-.224,0-.427,0-.6,0s-.372,0-.59,0c-.262,0-.56.005-.871.005a12.161,12.161,0,0,1-3.534-.35,2.871,2.871,0,0,1-1.61-1.61,15.4,15.4,0,0,1-.347-4.409c0-.218,0-.417,0-.588s0-.37,0-.588a15.465,15.465,0,0,1,.344-4.408,2.869,2.869,0,0,1,1.611-1.611,11.906,11.906,0,0,1,3.492-.35c.318,0,.624,0,.895.006.228,0,.433,0,.609,0s.374,0,.594,0c.265,0,.565-.005.878-.005a12.114,12.114,0,0,1,3.523.35,2.87,2.87,0,0,1,1.61,1.611,15.193,15.193,0,0,1,.347,4.394c0,.224,0,.428,0,.6s0,.379,0,.6a15.281,15.281,0,0,1-.345,4.394,2.87,2.87,0,0,1-1.611,1.61A11.945,11.945,0,0,1,17.766,22.807Zm-1.5-11.3a4.343,4.343,0,1,0,0,8.687h.007a4.307,4.307,0,0,0,3.065-1.271,4.345,4.345,0,0,0-3.073-7.416Zm4.522-1.2a1.014,1.014,0,1,0,0,2.028H20.8a1,1,0,0,0,.711-.3,1.015,1.015,0,0,0-.719-1.732Zm-4.521,8.365A2.825,2.825,0,1,1,19.1,15.849,2.829,2.829,0,0,1,16.272,18.674Z" fill="#eb7b41"/></svg>