<svg xmlns="http://www.w3.org/2000/svg" width="32" height="32" viewBox="0 0 32 32"><path d="M16,32A16,16,0,0,1,4.686,4.686,16,16,0,1,1,27.314,27.314,15.9,15.9,0,0,1,16,32ZM8.444,21.728h0A10.127,10.127,0,0,0,24.024,13.2c0-.152,0-.31-.011-.461A7.458,7.458,0,0,0,25.8,10.9a7.055,7.055,0,0,1-2.05.553,3.542,3.542,0,0,0,1.562-1.957,7.013,7.013,0,0,1-2.255.857,3.568,3.568,0,0,0-5.365.193,3.588,3.588,0,0,0-.7,3.056A10.125,10.125,0,0,1,9.653,9.878a3.488,3.488,0,0,0-.482,1.795,3.541,3.541,0,0,0,1.583,2.962,3.555,3.555,0,0,1-1.6-.451v.044A3.571,3.571,0,0,0,12,17.72a3.621,3.621,0,0,1-.923.12,4.6,4.6,0,0,1-.683-.055,3.562,3.562,0,0,0,3.325,2.468A7.1,7.1,0,0,1,9.3,21.771,7.541,7.541,0,0,1,8.444,21.728Z" fill="#eb7b41"/></svg>